<?xml version="1.0" encoding="UTF-8"?>
<svg width="24px" height="24px" viewBox="0 0 24 24" version="1.1" xmlns="http://www.w3.org/2000/svg">
    <title>Cog</title>
    <g stroke="none" stroke-width="1" fill="none" fill-rule="evenodd">
        <path d="M11.9907,2 C12.5752,2 13.1402,2.05 13.6857,2.15C13.9752,2.2 14.2152,2.425 14.3002,2.7145L14.7952,4.285C15.1252,4.39 15.4402,4.51 15.7402,4.65L17.1402,3.9C17.3997,3.775 17.7152,3.8 17.9502,3.965C18.7602,4.5445 19.4652,5.25 20.0447,6.05C20.2102,6.285 20.2352,6.6 20.1102,6.86L19.3602,8.2655C19.4902,8.5655 19.6102,8.875 19.7152,9.2L21.2847,9.6955C21.5747,9.78 21.7997,10.02 21.8497,10.31C21.9497,10.8555 22.0002,11.42 22.0002,12C22.0002,12.58 21.9497,13.145 21.8497,13.69C21.7997,13.98 21.5747,14.22 21.2847,14.305L19.7152,14.8C19.6102,15.125 19.4902,15.435 19.3602,15.735L20.1102,17.14C20.2352,17.4 20.2102,17.715 20.0447,17.95C19.4652,18.75 18.7602,19.455 17.9502,20.035C17.7152,20.2 17.3997,20.225 17.1402,20.1L15.7402,19.35C15.4402,19.49 15.1252,19.61 14.7952,19.715L14.3002,21.2855C14.2152,21.575 13.9752,21.8 13.6857,21.85C13.1402,21.95 12.5752,22 11.9907,22C11.4062,22 10.8412,21.95 10.2957,21.85C10.0062,21.8 9.76617,21.575 9.68117,21.2855L9.18617,19.715C8.85617,19.61 8.54117,19.49 8.24117,19.35L6.84117,20.1C6.58167,20.225 6.26617,20.2 6.03117,20.035C5.22117,19.455 4.51617,18.75 3.93667,17.95C3.77117,17.715 3.74617,17.4 3.87117,17.14L4.62117,15.735C4.49117,15.435 4.37117,15.125 4.26617,14.8L2.69667,14.305C2.40667,14.22 2.18167,13.98 2.13167,13.69C2.03167,13.145 1.98117,12.58 1.98117,12C1.98117,11.42 2.03167,10.8555 2.13167,10.31C2.18167,10.02 2.40667,9.78 2.69667,9.6955L4.26617,9.2C4.37117,8.875 4.49117,8.5655 4.62117,8.2655L3.87117,6.86C3.74617,6.6 3.77117,6.285 3.93667,6.05C4.51617,5.25 5.22117,4.5445 6.03117,3.965C6.26617,3.8 6.58167,3.775 6.84117,3.9L8.24117,4.65C8.54117,4.51 8.85617,4.39 9.18617,4.285L9.68117,2.7145C9.76617,2.425 10.0062,2.2 10.2957,2.15C10.8412,2.05 11.4062,2 11.9907,2 Z M11.9907,8 C9.78617,8 7.99117,9.795 7.99117,12C7.99117,14.205 9.78617,16 11.9907,16C14.1952,16 15.9902,14.205 15.9902,12C15.9902,9.795 14.1952,8 11.9907,8 Z" fill="currentColor"></path>
    </g>
</svg>
