<?xml version="1.0" encoding="UTF-8"?>
<svg width="24px" height="24px" viewBox="0 0 24 24" version="1.1" xmlns="http://www.w3.org/2000/svg">
    <g stroke="none" stroke-width="1" fill="none" fill-rule="evenodd">
        <path d="M21,6 L3,6 C1.9,6 1,6.9 1,8 L1,16 C1,17.1 1.9,18 3,18 L21,18 C22.1,18 23,17.1 23,16 L23,8 C23,6.9 22.1,6 21,6 Z M10,13 L8,13 L8,15 L6,15 L6,13 L4,13 L4,11 L6,11 L6,9 L8,9 L8,11 L10,11 L10,13 Z M15,15 C14.17,15 13.5,14.33 13.5,13.5 C13.5,12.67 14.17,12 15,12 C15.83,12 16.5,12.67 16.5,13.5 C16.5,14.33 15.83,15 15,15 Z M19,12 C18.17,12 17.5,11.33 17.5,10.5 C17.5,9.67 18.17,9 19,9 C19.83,9 20.5,9.67 20.5,10.5 C20.5,11.33 19.83,12 19,12 Z" fill="currentColor"></path>
    </g>
</svg>
