<?xml version="1.0" encoding="UTF-8"?>
<svg width="24px" height="24px" viewBox="0 0 24 24" version="1.1" xmlns="http://www.w3.org/2000/svg">
    <g stroke="none" stroke-width="1" fill="none" fill-rule="evenodd">
        <path d="M18,3 L18,5 L16,5 L16,3 L8,3 L8,5 L6,5 L6,3 L4,3 C2.9,3 2,3.9 2,5 L2,21 C2,22.1 2.9,23 4,23 L20,23 C21.1,23 22,22.1 22,21 L22,5 C22,3.9 21.1,3 20,3 L18,3 Z M9.5,18 L5,18 L5,13.5 L9.5,13.5 L9.5,18 Z M14.5,18 L10,18 L10,13.5 L14.5,13.5 L14.5,18 Z M19.5,18 L15,18 L15,13.5 L19.5,13.5 L19.5,18 Z M19.5,12.5 L5,12.5 L5,8 L19.5,8 L19.5,12.5 Z" fill="currentColor"></path>
    </g>
</svg>
