<?xml version="1.0" encoding="UTF-8"?>
<svg width="512px" height="512px" viewBox="0 0 512 512" version="1.1" xmlns="http://www.w3.org/2000/svg">
    <title>Acceleron Icon</title>
    <defs>
        <linearGradient x1="0%" y1="0%" x2="100%" y2="100%" id="acceleronGradient">
            <stop stop-color="#6C63FF" offset="0%"></stop>
            <stop stop-color="#4CC9F0" offset="100%"></stop>
        </linearGradient>
        <filter x="-10%" y="-10%" width="120%" height="120%" filterUnits="objectBoundingBox" id="glow">
            <feGaussianBlur stdDeviation="10" in="SourceGraphic"></feGaussianBlur>
        </filter>
    </defs>
    <g stroke="none" stroke-width="1" fill="none" fill-rule="evenodd">
        <circle fill="#121212" cx="256" cy="256" r="256"></circle>
        <g transform="translate(96, 96)">
            <path d="M160,0 L320,160 L240,240 L320,320 L160,320 L80,240 L160,160 L80,80 L160,0 Z" fill="url(#acceleronGradient)"></path>
            <path d="M160,0 L320,160 L240,240 L320,320 L160,320 L80,240 L160,160 L80,80 L160,0 Z" fill="url(#acceleronGradient)" filter="url(#glow)" opacity="0.5"></path>
            <path d="M160,40 L280,160 L200,240 L280,280 L160,280 L120,240 L160,200 L120,120 L160,40 Z" fill="#FFFFFF" opacity="0.2"></path>
        </g>
    </g>
</svg>
